<svg xmlns="http://www.w3.org/2000/svg" viewBox="0 0 128 128" fill="none">
  <!-- Фон -->
  <rect width="128" height="128" rx="24" fill="#1a1a2e"/>
  <!-- Чат-пузырь (фиолетовый) -->
  <path d="M28 42h72a8 8 0 0 1 8 8v36a8 8 0 0 1-8 8H58l-16 12V94H28a8 8 0 0 1-8-8V50a8 8 0 0 1 8-8z" fill="#7C3AED"/>
  <!-- Антенна -->
  <line x1="64" y1="42" x2="64" y2="33" stroke="#A78BFA" stroke-width="3" stroke-linecap="round"/>
  <circle cx="64" cy="30" r="4" fill="#C4B5FD"/>
  <!-- Глаза робота (два светящихся прямоугольника) -->
  <rect x="45" y="58" width="14" height="10" rx="3" fill="#EDE9FE"/>
  <rect x="69" y="58" width="14" height="10" rx="3" fill="#EDE9FE"/>
  <!-- Зрачки -->
  <rect x="50" y="60" width="5" height="6" rx="1.5" fill="#4C1D95"/>
  <rect x="74" y="60" width="5" height="6" rx="1.5" fill="#4C1D95"/>
  <!-- Рот (улыбка из точек / решётка) -->
  <rect x="48" y="74" width="32" height="4" rx="2" fill="#A78BFA"/>
  <line x1="54" y1="74" x2="54" y2="78" stroke="#7C3AED" stroke-width="1.5"/>
  <line x1="60" y1="74" x2="60" y2="78" stroke="#7C3AED" stroke-width="1.5"/>
  <line x1="66" y1="74" x2="66" y2="78" stroke="#7C3AED" stroke-width="1.5"/>
  <line x1="74" y1="74" x2="74" y2="78" stroke="#7C3AED" stroke-width="1.5"/>
</svg>
